<?xml version="1.0" standalone="no"?>
<!DOCTYPE svg PUBLIC "-//W3C//DTD SVG 20010904//EN"
 "http://www.w3.org/TR/2001/REC-SVG-20010904/DTD/svg10.dtd">
<svg version="1.0" xmlns="http://www.w3.org/2000/svg"
 width="189.000000pt" height="60.000000pt" viewBox="0 0 189.000000 60.000000"
 preserveAspectRatio="xMidYMid meet">
<metadata>
Created by potrace 1.10, written by Peter Selinger 2001-2011
</metadata>
<g transform="translate(0.000000,60.000000) scale(0.100000,-0.100000)"
fill="#e94949" stroke="none">
<path d="M252 455 c-15 -32 -15 -65 -2 -65 6 0 10 11 10 24 0 14 5 28 10 31
12 7 13 35 2 35 -5 0 -14 -11 -20 -25z"/>
<path d="M172 454 c-37 -26 -46 -53 -26 -75 14 -15 14 -19 2 -19 -20 0 -80
-46 -95 -73 -19 -34 -16 -101 5 -120 47 -43 125 -25 162 36 24 39 26 95 5 104
-23 8 -28 -2 -14 -25 28 -46 -25 -122 -85 -122 -27 0 -40 6 -52 25 -34 52 18
140 101 168 39 14 39 14 12 21 -18 4 -27 13 -27 26 0 21 35 50 62 50 10 0 18
5 18 10 0 15 -43 12 -68 -6z"/>
<path d="M328 424 c-44 -100 -53 -252 -16 -275 18 -12 29 -7 47 22 15 24 15
24 -6 6 -36 -31 -46 -13 -40 67 5 61 26 147 52 209 4 10 3 17 -4 17 -7 0 -21
-21 -33 -46z"/>
<path d="M426 418 c-33 -75 -51 -188 -36 -232 13 -41 36 -52 62 -30 21 20 16
33 -6 15 -25 -21 -36 -3 -36 57 0 48 27 157 55 225 4 10 3 17 -4 17 -7 0 -23
-24 -35 -52z"/>
<path d="M1043 448 c-11 -13 -30 -40 -42 -60 -13 -21 -24 -38 -26 -38 -1 0 0
20 3 45 4 36 1 46 -12 51 -21 8 -84 -49 -92 -83 -4 -13 -10 -23 -14 -23 -5 0
-6 8 -3 18 2 11 -2 35 -11 55 -12 30 -20 37 -43 37 -16 0 -34 -5 -41 -12 -15
-15 -16 -38 -2 -38 6 0 10 7 10 15 0 21 27 30 45 15 26 -21 15 -142 -21 -234
-5 -14 -3 -17 7 -14 8 2 24 31 35 64 33 91 92 184 116 184 12 0 0 -77 -23
-153 -10 -34 -16 -63 -14 -66 7 -6 34 30 35 45 1 30 102 194 120 194 4 0 -3
-33 -17 -72 -13 -40 -27 -103 -30 -139 -5 -64 -5 -67 21 -84 21 -14 29 -15 41
-5 8 7 15 17 15 22 0 6 -6 5 -15 -2 -23 -19 -35 -2 -35 49 0 40 20 121 57 234
8 26 -39 22 -64 -5z"/>
<path d="M1322 428 c-44 -95 -57 -242 -23 -272 16 -15 22 -15 40 -4 12 7 21
20 21 28 -1 12 -3 12 -14 -3 -53 -70 -57 91 -5 228 21 56 23 65 10 65 -5 0
-18 -19 -29 -42z"/>
<path d="M1521 428 c-10 -24 -21 -56 -25 -72 -10 -40 -79 -136 -98 -136 -16 0
-7 56 15 95 18 30 29 39 46 38 13 -2 20 1 16 7 -32 52 -134 -86 -104 -141 15
-29 34 -23 75 24 l37 42 -6 -32 c-15 -76 24 -134 64 -97 22 20 17 33 -5 15
-29 -24 -39 -2 -34 78 4 65 19 121 53 204 4 10 3 17 -4 17 -7 0 -20 -19 -30
-42z"/>
<path d="M1200 381 c0 -6 5 -13 11 -17 30 -18 -16 -149 -52 -149 -25 0 -17 90
11 120 34 36 17 43 -19 7 -35 -35 -48 -74 -35 -111 22 -62 94 -25 115 60 8 32
18 49 28 50 10 0 8 4 -6 9 -13 5 -23 16 -23 25 0 8 -7 15 -15 15 -8 0 -15 -4
-15 -9z"/>
<path d="M514 345 c-34 -37 -51 -88 -39 -124 10 -32 40 -25 74 17 l31 37 -6
-30 c-7 -40 11 -87 33 -83 9 2 19 10 21 18 5 13 3 13 -11 1 -16 -12 -17 -8
-17 43 0 31 6 72 14 91 25 59 1 47 -45 -22 -52 -79 -69 -89 -69 -40 0 45 39
103 68 100 25 -3 30 12 6 21 -23 9 -24 9 -60 -29z"/>
<path d="M1602 354 c-30 -21 -52 -66 -52 -107 0 -34 10 -49 42 -60 18 -6 68
27 68 45 0 7 -10 2 -23 -10 -29 -28 -43 -28 -58 -1 -8 16 -8 32 0 58 17 59 71
106 71 63 0 -20 -35 -62 -51 -62 -6 0 -7 -4 -4 -10 9 -15 59 14 72 42 22 48
-19 75 -65 42z"/>
<path d="M1730 340 c-17 -18 -30 -40 -30 -49 1 -13 3 -13 15 4 46 62 76 78 83
44 4 -20 -39 -81 -66 -95 -30 -15 -17 -24 25 -17 l36 6 -6 -34 c-8 -39 -66
-99 -97 -99 -38 0 -18 42 41 86 34 25 30 32 -8 11 -63 -35 -82 -109 -30 -115
22 -3 38 6 73 41 36 36 44 51 44 81 0 25 -4 36 -15 36 -20 0 -19 5 6 39 52 71
-11 125 -71 61z"/>
</g>
</svg>
